<svg xmlns="http://www.w3.org/2000/svg" xmlns:xlink="http://www.w3.org/1999/xlink" version="1.1" x="0px" y="0px" viewBox="0 0 50 62.5" enable-background="new 0 0 50 50" xml:space="preserve"><g><path d="M35.59395,11.6414V7.9142c0-0.8909-1.0772-1.3371-1.70709-0.7071l-6.58591,6.5858c-0.3905,0.3905-0.3905,1.0236,0,1.4142   l6.58591,6.5858c0.62989,0.63,1.70709,0.1838,1.70709-0.7071V17.368c4.1673,0.051,7.5423,3.4527,7.5423,7.6319   c0,4.211-3.4253,7.6368-7.6362,7.6368c-4.211,0-7.6363-3.4258-7.6363-7.6368c0-7.3691-5.9951-13.3632-13.3637-13.3632   c-7.3687,0-13.3638,5.9941-13.3638,13.3632c0,7.3165,5.9114,13.2705,13.2077,13.3554v3.7305c0,0.8909,1.0771,1.3371,1.707,0.7071   l6.58591-6.5858c0.39049-0.3906,0.39049-1.0237,0-1.4142l-6.58591-6.5858c-0.6299-0.63-1.707-0.1838-1.707,0.7071v3.7145   c-4.1385-0.0842-7.4802-3.4705-7.4802-7.6288c0-4.2109,3.4253-7.6367,7.6363-7.6367c4.2109,0,7.6362,3.4258,7.6362,7.6367   c0,7.3692,5.9951,13.3633,13.3638,13.3633c7.3686,0,13.3637-5.9941,13.3637-13.3633   C48.86375,17.6625,42.91905,11.6926,35.59395,11.6414z"/><path d="M35.59395,11.6414V7.9142c0-0.8909-1.0772-1.3371-1.70709-0.7071l-6.58591,6.5858c-0.3905,0.3905-0.3905,1.0236,0,1.4142   l6.58591,6.5858c0.62989,0.63,1.70709,0.1838,1.70709-0.7071V17.368c4.1673,0.051,7.5423,3.4527,7.5423,7.6319   c0,4.211-3.4253,7.6368-7.6362,7.6368c-4.211,0-7.6363-3.4258-7.6363-7.6368c0-7.3691-5.9951-13.3632-13.3637-13.3632   c-7.3687,0-13.3638,5.9941-13.3638,13.3632c0,7.3165,5.9114,13.2705,13.2077,13.3554v3.7305c0,0.8909,1.0771,1.3371,1.707,0.7071   l6.58591-6.5858c0.39049-0.3906,0.39049-1.0237,0-1.4142l-6.58591-6.5858c-0.6299-0.63-1.707-0.1838-1.707,0.7071v3.7145   c-4.1385-0.0842-7.4802-3.4705-7.4802-7.6288c0-4.2109,3.4253-7.6367,7.6363-7.6367c4.2109,0,7.6362,3.4258,7.6362,7.6367   c0,7.3692,5.9951,13.3633,13.3638,13.3633c7.3686,0,13.3637-5.9941,13.3637-13.3633   C48.86375,17.6625,42.91905,11.6926,35.59395,11.6414z"/></g><text x="0" y="65" fill="#000000" font-size="5px" font-weight="bold" font-family="'Helvetica Neue', Helvetica, Arial-Unicode, Arial, Sans-serif">Created by Vectors Point</text><text x="0" y="70" fill="#000000" font-size="5px" font-weight="bold" font-family="'Helvetica Neue', Helvetica, Arial-Unicode, Arial, Sans-serif">from the Noun Project</text></svg>